<svg width="43" height="39" viewBox="0 0 43 39" fill="none" xmlns="http://www.w3.org/2000/svg">
<path d="M21.5 8.39844C21.0364 8.39844 20.6602 8.77473 20.6602 9.23828C20.6602 9.70184 21.0364 10.0781 21.5 10.0781C21.9636 10.0781 22.3398 9.70184 22.3398 9.23828C22.3398 8.77473 21.9636 8.39844 21.5 8.39844Z" fill="black"/>
<path d="M7.55859 23.5156C8.02215 23.5156 8.39844 23.1393 8.39844 22.6758C8.39844 22.2122 8.02215 21.8359 7.55859 21.8359C7.09504 21.8359 6.71875 22.2122 6.71875 22.6758C6.71875 23.1393 7.09504 23.5156 7.55859 23.5156Z" fill="black"/>
<path d="M28.2188 0C20.6579 0 14.4522 5.21294 13.9722 11.7791C6.77157 12.1403 0 17.3326 0 24.3555C0 27.2903 1.16135 30.134 3.27539 32.3871C3.69367 34.1114 3.18583 35.9391 1.92574 37.1992C1.68559 37.4393 1.61375 37.8005 1.74366 38.1145C1.87357 38.4281 2.17966 38.6328 2.51953 38.6328C4.91473 38.6328 7.22298 37.6936 8.9381 36.0385C10.6089 36.608 12.7889 36.9531 14.7812 36.9531C22.3412 36.9531 28.5462 31.7415 29.0274 25.1766C30.7859 25.0985 32.6148 24.7738 34.0619 24.2807C35.777 25.9358 38.0853 26.875 40.4805 26.875C40.8203 26.875 41.1264 26.6703 41.2563 26.3567C41.3863 26.0427 41.3144 25.6815 41.0743 25.4414C39.8142 24.1813 39.3063 22.3536 39.7246 20.6293C41.8387 18.3762 43 15.5325 43 12.5977C43 5.30053 35.7068 0 28.2188 0ZM14.7812 35.2734C12.7991 35.2734 10.5404 34.8844 9.02734 34.2824C8.70321 34.1531 8.33282 34.2381 8.09695 34.4956C7.0829 35.6041 5.76441 36.377 4.32782 36.7323C5.11944 35.2157 5.32153 33.4277 4.83993 31.7336C4.80187 31.6001 4.73134 31.4781 4.63456 31.3787C2.72916 29.4162 1.67969 26.9219 1.67969 24.3555C1.67969 18.4372 7.67932 13.4375 14.7812 13.4375C21.4875 13.4375 27.3789 18.1009 27.3789 24.3555C27.3789 30.3758 21.7277 35.2734 14.7812 35.2734V35.2734ZM38.3654 19.6208C38.2687 19.7206 38.1981 19.8426 38.1601 19.9758C37.6785 21.6699 37.8806 23.4579 38.6722 24.9745C37.2356 24.6196 35.9171 23.8463 34.9031 22.7378C34.6672 22.4806 34.2968 22.3953 33.9727 22.5245C32.6614 23.0462 30.7908 23.4074 29.0248 23.4946C28.7794 20.3186 27.1952 17.3336 24.4867 15.1172H35.4414C35.9053 15.1172 36.2812 14.7412 36.2812 14.2773C36.2812 13.8135 35.9053 13.4375 35.4414 13.4375H21.9065C20.0001 12.4671 17.8595 11.9012 15.6562 11.7824C16.1388 6.14169 21.5889 1.67969 28.2188 1.67969C35.3207 1.67969 41.3203 6.67938 41.3203 12.5977C41.3203 15.1641 40.2708 17.6584 38.3654 19.6208V19.6208Z" fill="black"/>
<path d="M21.5 21.8359H10.918C10.4541 21.8359 10.0781 22.2119 10.0781 22.6758C10.0781 23.1397 10.4541 23.5156 10.918 23.5156H21.5C21.9639 23.5156 22.3398 23.1397 22.3398 22.6758C22.3398 22.2119 21.9639 21.8359 21.5 21.8359Z" fill="black"/>
<path d="M21.5 26.875H7.55859C7.09471 26.875 6.71875 27.251 6.71875 27.7148C6.71875 28.1787 7.09471 28.5547 7.55859 28.5547H21.5C21.9639 28.5547 22.3398 28.1787 22.3398 27.7148C22.3398 27.251 21.9639 26.875 21.5 26.875Z" fill="black"/>
<path d="M35.4414 8.39844H24.8594C24.3955 8.39844 24.0195 8.7744 24.0195 9.23828C24.0195 9.70216 24.3955 10.0781 24.8594 10.0781H35.4414C35.9053 10.0781 36.2812 9.70216 36.2812 9.23828C36.2812 8.7744 35.9053 8.39844 35.4414 8.39844Z" fill="black"/>
</svg>
