<svg width="43" height="43" viewBox="0 0 43 43" fill="none" xmlns="http://www.w3.org/2000/svg">
<path d="M16.5728 14.3334H3.13531C1.40641 14.3334 0 12.927 0 11.1978V3.13531C0 1.40641 1.40641 0 3.13531 0H16.5728C18.302 0 19.7084 1.40641 19.7084 3.13531V11.1978C19.7084 12.927 18.302 14.3334 16.5728 14.3334ZM3.13531 2.6875C2.88828 2.6875 2.6875 2.88828 2.6875 3.13531V11.1978C2.6875 11.4452 2.88828 11.6459 3.13531 11.6459H16.5728C16.8202 11.6459 17.0209 11.4452 17.0209 11.1978V3.13531C17.0209 2.88828 16.8202 2.6875 16.5728 2.6875H3.13531Z" fill="black"/>
<path d="M16.5728 43.0002H3.13531C1.40641 43.0002 0 41.5938 0 39.8649V21.0524C0 19.3232 1.40641 17.9167 3.13531 17.9167H16.5728C18.302 17.9167 19.7084 19.3232 19.7084 21.0524V39.8649C19.7084 41.5938 18.302 43.0002 16.5728 43.0002ZM3.13531 20.6042C2.88828 20.6042 2.6875 20.805 2.6875 21.0524V39.8649C2.6875 40.1119 2.88828 40.3127 3.13531 40.3127H16.5728C16.8202 40.3127 17.0209 40.1119 17.0209 39.8649V21.0524C17.0209 20.805 16.8202 20.6042 16.5728 20.6042H3.13531Z" fill="black"/>
<path d="M39.8646 43.0002H26.4271C24.6979 43.0002 23.2915 41.5938 23.2915 39.8649V31.8024C23.2915 30.0732 24.6979 28.6667 26.4271 28.6667H39.8646C41.5935 28.6667 43 30.0732 43 31.8024V39.8649C43 41.5938 41.5935 43.0002 39.8646 43.0002V43.0002ZM26.4271 31.3542C26.1798 31.3542 25.979 31.555 25.979 31.8024V39.8649C25.979 40.1119 26.1798 40.3127 26.4271 40.3127H39.8646C40.1117 40.3127 40.3124 40.1119 40.3124 39.8649V31.8024C40.3124 31.555 40.1117 31.3542 39.8646 31.3542H26.4271Z" fill="black"/>
<path d="M39.8646 25.0834H26.4271C24.6979 25.0834 23.2915 23.677 23.2915 21.9478V3.13531C23.2915 1.40641 24.6979 0 26.4271 0H39.8646C41.5935 0 43 1.40641 43 3.13531V21.9478C43 23.677 41.5935 25.0834 39.8646 25.0834V25.0834ZM26.4271 2.6875C26.1798 2.6875 25.979 2.88828 25.979 3.13531V21.9478C25.979 22.1952 26.1798 22.3959 26.4271 22.3959H39.8646C40.1117 22.3959 40.3124 22.1952 40.3124 21.9478V3.13531C40.3124 2.88828 40.1117 2.6875 39.8646 2.6875H26.4271Z" fill="black"/>
</svg>
