<svg width="43" height="36" viewBox="0 0 43 36" fill="none" xmlns="http://www.w3.org/2000/svg">
<path d="M36.7012 18.8482H32.492C31.9192 18.8482 31.3646 18.9265 30.8367 19.0705C29.7955 17.0236 27.6697 15.6172 25.2201 15.6172H17.7799C15.3303 15.6172 13.2045 17.0236 12.1633 19.0705C11.6354 18.9265 11.0808 18.8482 10.508 18.8482H6.29883C2.82565 18.8482 0 21.6739 0 25.1471V31.8757C0 33.9596 1.69539 35.655 3.7793 35.655H39.2207C41.3046 35.655 43 33.9596 43 31.8757V25.1471C43 21.6739 40.1743 18.8482 36.7012 18.8482ZM11.4811 21.9162V33.1356H3.7793C3.08466 33.1356 2.51953 32.5704 2.51953 31.8758V25.1471C2.51953 23.0632 4.21492 21.3679 6.29883 21.3679H10.508C10.8499 21.3679 11.1811 21.4143 11.4964 21.4999C11.4873 21.6377 11.4811 21.7763 11.4811 21.9162ZM28.9994 33.1356H14.0006V21.9161C14.0006 19.8322 15.696 18.1368 17.7799 18.1368H25.2201C27.304 18.1368 28.9994 19.8322 28.9994 21.9161V33.1356ZM40.4805 31.8758C40.4805 32.5704 39.9153 33.1356 39.2207 33.1356H31.5189V21.9161C31.5189 21.7761 31.5127 21.6375 31.5036 21.4998C31.8189 21.4143 32.1501 21.3678 32.492 21.3678H36.7012C38.7851 21.3678 40.4805 23.0632 40.4805 25.1471V31.8758Z" fill="black"/>
<path d="M8.40289 6.9519C5.31654 6.9519 2.80566 9.46278 2.80566 12.5491C2.80558 15.6355 5.31654 18.1463 8.40289 18.1463C11.4891 18.1463 14.0001 15.6355 14.0001 12.5491C14.0001 9.46278 11.4892 6.9519 8.40289 6.9519ZM8.4028 15.6268C6.70573 15.6268 5.32511 14.2462 5.32511 12.5491C5.32511 10.8521 6.70573 9.47144 8.4028 9.47144C10.0999 9.47144 11.4805 10.8521 11.4805 12.5491C11.4805 14.2462 10.0999 15.6268 8.4028 15.6268Z" fill="black"/>
<path d="M21.4998 0C17.3765 0 14.022 3.3545 14.022 7.4778C14.022 11.6011 17.3765 14.9556 21.4998 14.9556C25.6231 14.9556 28.9776 11.6011 28.9776 7.4778C28.9776 3.35459 25.6231 0 21.4998 0ZM21.4998 12.4361C18.7657 12.4361 16.5415 10.2118 16.5415 7.4778C16.5415 4.74386 18.7657 2.51953 21.4998 2.51953C24.2338 2.51953 26.458 4.74377 26.458 7.4778C26.458 10.2118 24.2338 12.4361 21.4998 12.4361Z" fill="black"/>
<path d="M34.5962 6.9519C31.51 6.9519 28.999 9.46278 28.999 12.5491C28.9991 15.6355 31.51 18.1463 34.5962 18.1463C37.6826 18.1463 40.1935 15.6355 40.1935 12.5491C40.1935 9.46278 37.6826 6.9519 34.5962 6.9519ZM34.5962 15.6268C32.8993 15.6268 31.5186 14.2462 31.5186 12.5491C31.5186 10.8521 32.8993 9.47144 34.5962 9.47144C36.2933 9.47144 37.6739 10.8521 37.6739 12.5491C37.6739 14.2462 36.2933 15.6268 34.5962 15.6268Z" fill="black"/>
</svg>
