<svg width="43" height="43" viewBox="0 0 43 43" fill="none" xmlns="http://www.w3.org/2000/svg">
<path d="M21.5 33.8877C22.6596 33.8877 23.5996 32.9477 23.5996 31.7881C23.5996 30.6285 22.6596 29.6885 21.5 29.6885C20.3404 29.6885 19.4004 30.6285 19.4004 31.7881C19.4004 32.9477 20.3404 33.8877 21.5 33.8877Z" fill="black"/>
<path d="M21.5 0C9.61756 0 0 9.61596 0 21.5C0 33.3824 9.61596 43 21.5 43C33.3824 43 43 33.384 43 21.5C43 9.61756 33.384 0 21.5 0ZM21.5 39.6406C11.4742 39.6406 3.35938 31.5271 3.35938 21.5C3.35938 11.4742 11.4729 3.35938 21.5 3.35938C31.5258 3.35938 39.6406 11.4729 39.6406 21.5C39.6406 31.5258 31.5271 39.6406 21.5 39.6406Z" fill="black"/>
<path d="M21.5 10.792C17.7953 10.792 14.7812 13.806 14.7812 17.5107C14.7812 18.4384 15.5332 19.1904 16.4609 19.1904C17.3886 19.1904 18.1406 18.4384 18.1406 17.5107C18.1406 15.6584 19.6476 14.1514 21.5 14.1514C23.3524 14.1514 24.8594 15.6584 24.8594 17.5107C24.8594 19.3631 23.3524 20.8701 21.5 20.8701C20.5723 20.8701 19.8203 21.6221 19.8203 22.5498V26.749C19.8203 27.6767 20.5723 28.4287 21.5 28.4287C22.4277 28.4287 23.1797 27.6767 23.1797 26.749V24.0169C26.0743 23.2692 28.2188 20.6357 28.2188 17.5107C28.2188 13.806 25.2047 10.792 21.5 10.792Z" fill="black"/>
</svg>
