<svg width="43" height="43" viewBox="0 0 43 43" fill="none" xmlns="http://www.w3.org/2000/svg">
<path d="M40.781 16.1028L40.7806 16.1028L28.3677 14.9269L27.4647 14.8413L27.121 14.0018L22.2164 2.01942C22.2162 2.01908 22.2161 2.01875 22.216 2.01842C22.0729 1.67166 21.778 1.5 21.5 1.5C21.221 1.5 20.9275 1.67243 20.7869 2.01632L20.7866 2.01702L15.881 14.0018L15.5374 14.8413L14.6342 14.9269L2.2218 16.1026C2.22152 16.1026 2.22125 16.1026 2.22097 16.1027C1.94367 16.1297 1.65853 16.3328 1.54414 16.6951C1.43001 17.0635 1.54472 17.4496 1.79189 17.6758L11.1749 26.2613L11.8114 26.8437L11.628 27.6868L8.86172 40.4006C8.86168 40.4008 8.86164 40.401 8.8616 40.4012C8.77831 40.7869 8.92932 41.1533 9.18772 41.3482L9.1907 41.3504C9.32712 41.4539 9.4777 41.5 9.62459 41.5C9.75022 41.5 9.87985 41.4657 10.002 41.3894L10.0024 41.3892L20.706 34.7107L21.5001 34.2153L22.2942 34.7108L32.9953 41.389L40.781 16.1028ZM40.781 16.1028C41.0575 16.1289 41.3422 16.3314 41.4551 16.6926L40.781 16.1028ZM33.8111 41.3492L33.8123 41.3482C34.0709 41.1532 34.2219 40.7865 34.1383 40.4006L31.3721 27.6868L31.1886 26.8437L31.8252 26.2613L41.2079 17.676C41.4556 17.4492 41.5705 17.0639 41.4552 16.6927L33.8111 41.3492ZM33.8111 41.3492C33.563 41.5366 33.2513 41.5484 32.9958 41.3892L33.8111 41.3492Z" stroke="black" stroke-width="3"/>
<path d="M28.5092 13.4335C29.4193 13.5195 16.0964 12.2576 28.5092 13.4335L23.6036 1.4488C23.2414 0.568289 22.4173 0 21.5 0C20.5827 0 19.7583 0.568289 19.3984 1.4488L14.4928 13.4335L2.07801 14.6095C1.16795 14.6971 0.397318 15.3404 0.112554 16.2473C-0.17057 17.1558 0.0909011 18.1524 0.77919 18.7823L10.1623 27.3679L7.39569 40.0832C7.19327 41.0182 7.54102 41.985 8.28442 42.5457C8.68401 42.8487 9.15348 43 9.62459 43C10.0294 43 10.4346 42.8877 10.7964 42.6618L28.5092 13.4335Z" fill="black"/>
</svg>
