<svg width="43" height="43" viewBox="0 0 43 43" fill="none" xmlns="http://www.w3.org/2000/svg">
<path d="M28.716 4.9197C22.1559 -1.6399 11.479 -1.6399 4.91896 4.9197C-1.63965 11.4807 -1.63965 22.1555 4.91896 28.7166C10.7608 34.5566 19.8593 35.1823 26.415 30.622C26.553 31.2747 26.8687 31.8975 27.3764 32.4052L36.9299 41.958C38.3221 43.3473 40.5718 43.3473 41.9569 41.958C43.3477 40.5673 43.3477 38.3178 41.9569 36.9313L32.4034 27.3756C31.8986 26.8722 31.2743 26.5551 30.6215 26.4172C35.185 19.8605 34.5593 10.764 28.716 4.9197ZM25.6997 25.7005C20.8021 30.5978 12.8314 30.5978 7.93518 25.7005C3.0404 20.8032 3.0404 12.8344 7.93518 7.93714C12.8314 3.04126 20.8021 3.04126 25.6997 7.93714C30.5974 12.8344 30.5974 20.8032 25.6997 25.7005Z" fill="black"/>
</svg>
