<svg width="43" height="43" viewBox="0 0 43 43" fill="none" xmlns="http://www.w3.org/2000/svg">
<path d="M40.4803 22.9764V18.9804C40.4803 18.2847 39.9163 17.7207 39.2205 17.7207C36.618 17.7207 34.1917 17.9403 31.8994 18.3888C30.5631 17.0983 28.9341 16.1621 27.17 15.6504C29.0936 14.0314 30.3182 11.6074 30.3182 8.90233C30.3182 3.99353 26.3623 0 21.4999 0C16.6374 0 12.6815 3.99353 12.6815 8.90233C12.6815 11.6074 13.9062 14.0314 15.8298 15.6503C14.0658 16.1621 12.4367 17.0983 11.1004 18.3887C8.8081 17.9403 6.38179 17.7206 3.77929 17.7206C3.08356 17.7206 2.51953 18.2846 2.51953 18.9804V22.9763C1.05325 23.4963 0 24.8966 0 26.5389V29.0585C0 30.7008 1.05325 32.101 2.51953 32.6211V36.617C2.51953 37.3128 3.08356 37.8768 3.77929 37.8768C10.3661 37.8768 15.7749 39.4375 20.8012 42.7883C21.2224 43.069 21.7772 43.0696 22.1988 42.7883C27.2251 39.4375 32.6338 37.8768 39.2207 37.8768C39.9164 37.8768 40.4805 37.3128 40.4805 36.617V32.6211C41.9468 32.101 43 30.7008 43 29.0585V26.5389C42.9998 24.8967 41.9466 23.4964 40.4803 22.9764ZM15.2011 8.90233C15.2011 5.3828 18.0267 2.51953 21.4999 2.51953C24.973 2.51953 27.7987 5.3828 27.7987 8.90233C27.7987 12.3755 24.973 15.2011 21.4999 15.2011C18.0267 15.2011 15.2011 12.3755 15.2011 8.90233ZM3.77921 30.3183C3.08457 30.3183 2.51944 29.7532 2.51944 29.0585V26.539C2.51944 25.8444 3.08457 25.2792 3.77921 25.2792C4.47384 25.2792 5.03897 25.8444 5.03897 26.539V29.0585C5.03897 29.7532 4.47384 30.3183 3.77921 30.3183ZM20.2401 39.4797C15.6669 36.8644 10.7595 35.5425 5.03897 35.3755V32.6211C6.50525 32.1011 7.5585 30.7009 7.5585 29.0585V26.539C7.5585 24.8967 6.50525 23.4964 5.03897 22.9764V20.258C10.9583 20.4279 15.7162 21.8218 20.2401 24.7021V39.4797ZM21.4999 22.5194C19.1747 21.0523 16.7544 19.9353 14.1707 19.1502C15.5904 18.2276 17.2616 17.7207 18.9803 17.7207H24.0194C25.7381 17.7207 27.4093 18.2276 28.829 19.1502C26.2453 19.9353 23.825 21.0523 21.4999 22.5194ZM37.9608 35.3755C32.2404 35.5425 27.3327 36.8647 22.7596 39.4799V24.7031C27.2836 21.8225 32.0412 20.4278 37.9608 20.258V22.9764C36.4945 23.4964 35.4413 24.8967 35.4413 26.539V29.0585C35.4413 30.7009 36.4945 32.1011 37.9608 32.6211V35.3755ZM40.4803 29.0585C40.4803 29.7532 39.9152 30.3183 39.2205 30.3183C38.5259 30.3183 37.9608 29.7532 37.9608 29.0585V26.539C37.9608 25.8444 38.5259 25.2792 39.2205 25.2792C39.9152 25.2792 40.4803 25.8444 40.4803 26.539V29.0585Z" fill="black"/>
</svg>
