<svg width="44" height="44" viewBox="0 0 44 44" fill="none" xmlns="http://www.w3.org/2000/svg">
<g opacity="0.5">
<path opacity="0.5" d="M22 44C34.1503 44 44 34.1503 44 22C44 9.84974 34.1503 0 22 0C9.84974 0 0 9.84974 0 22C0 34.1503 9.84974 44 22 44Z" fill="url(#paint0_linear)"/>
</g>
<path d="M22.0429 43.3955C33.9369 43.3955 43.5789 33.7534 43.5789 21.8594C43.5789 9.96538 33.9369 0.323364 22.0429 0.323364C10.1489 0.323364 0.506836 9.96538 0.506836 21.8594C0.506836 33.7534 10.1489 43.3955 22.0429 43.3955Z" fill="#F5F5F5"/>
<path d="M22.0631 43.4806C26.2712 43.4874 30.3883 42.2553 33.9008 39.9379C33.1072 35.6009 30.0871 35.3538 30.0871 35.3538H13.4326C13.4326 35.3538 10.5827 35.5877 9.69263 39.5773C13.3141 42.1247 17.6354 43.4882 22.0631 43.4806V43.4806Z" fill="#6FB2C0"/>
<path d="M21.8342 31.8004C27.5751 31.8004 32.2291 27.1465 32.2291 21.4056C32.2291 15.6646 27.5751 11.0107 21.8342 11.0107C16.0933 11.0107 11.4394 15.6646 11.4394 21.4056C11.4394 27.1465 16.0933 31.8004 21.8342 31.8004Z" fill="#333333"/>
<path opacity="0.1" d="M18.4794 30.0637H25.1399V35.3923C25.1399 36.2753 24.7892 37.1222 24.1649 37.7467C23.5407 38.3712 22.6939 38.7222 21.8109 38.7225V38.7225C20.9277 38.7225 20.0806 38.3717 19.456 37.7471C18.8315 37.1226 18.4806 36.2755 18.4806 35.3923V30.0637H18.4794Z" fill="black"/>
<path d="M18.6906 29.8166H24.9313C24.9873 29.8166 25.041 29.8389 25.0806 29.8785C25.1202 29.9181 25.1424 29.9718 25.1424 30.0278V35.1452C25.1425 35.5827 25.0564 36.0159 24.889 36.4201C24.7216 36.8243 24.4762 37.1915 24.1668 37.5009C23.8574 37.8102 23.4901 38.0555 23.0859 38.2228C22.6816 38.3902 22.2484 38.4762 21.8109 38.476V38.476C20.9277 38.476 20.0806 38.1252 19.4561 37.5006C18.8315 36.8761 18.4807 36.029 18.4807 35.1458V30.0278C18.4807 29.972 18.5027 29.9185 18.5421 29.8789C18.5814 29.8393 18.6348 29.817 18.6906 29.8166V29.8166Z" fill="#FDB797"/>
<path opacity="0.1" d="M18.4913 32.5789C20.638 33.3809 23.0009 33.3874 25.1518 32.5972V31.7777H18.4913V32.5789Z" fill="black"/>
<path d="M21.8342 33.0246C27.1069 33.0246 31.3812 28.7503 31.3812 23.4776C31.3812 18.2049 27.1069 13.9306 21.8342 13.9306C16.5616 13.9306 12.2872 18.2049 12.2872 23.4776C12.2872 28.7503 16.5616 33.0246 21.8342 33.0246Z" fill="#FDB797"/>
<path opacity="0.1" d="M15.0338 14.7936C15.0338 14.7936 19.0574 22.9607 30.4073 18.2178L27.7648 14.0743L23.0805 12.3931L15.0338 14.7936Z" fill="black"/>
<path d="M15.0338 14.6738C15.0338 14.6738 19.0574 22.8409 30.4073 18.0967L27.7648 13.9533L23.0805 12.2721L15.0338 14.6738Z" fill="#333333"/>
<path d="M14.9985 14.1204C15.2698 13.2805 15.7387 12.5181 16.3658 11.897C18.2437 10.0406 21.3224 9.64914 22.9015 7.53235C23.2797 8.11986 22.9872 9.02318 22.3341 9.27533C23.847 9.26524 25.6001 9.13286 26.4555 7.88851C26.6669 8.38066 26.7343 8.9227 26.6498 9.45163C26.5654 9.98056 26.3325 10.4747 25.9783 10.8765C27.3191 10.9395 28.752 11.8472 28.8364 13.1868C28.8944 14.0794 28.3321 14.9241 27.6015 15.436C26.8709 15.9478 25.9808 16.1829 25.1078 16.3752C22.5586 16.9381 13.3349 19.2938 14.9985 14.1204Z" fill="#333333"/>
<path d="M12.2835 25.1342C12.774 25.1342 13.1717 24.3886 13.1717 23.4688C13.1717 22.549 12.774 21.8033 12.2835 21.8033C11.7929 21.8033 11.3953 22.549 11.3953 23.4688C11.3953 24.3886 11.7929 25.1342 12.2835 25.1342Z" fill="#FDB797"/>
<path d="M31.38 25.1342C31.8705 25.1342 32.2682 24.3886 32.2682 23.4688C32.2682 22.549 31.8705 21.8033 31.38 21.8033C30.8894 21.8033 30.4918 22.549 30.4918 23.4688C30.4918 24.3886 30.8894 25.1342 31.38 25.1342Z" fill="#FDB797"/>
<defs>
<linearGradient id="paint0_linear" x1="22" y1="44" x2="22" y2="0" gradientUnits="userSpaceOnUse">
<stop stop-color="#808080" stop-opacity="0.25"/>
<stop offset="0.54" stop-color="#808080" stop-opacity="0.12"/>
<stop offset="1" stop-color="#808080" stop-opacity="0.1"/>
</linearGradient>
</defs>
</svg>
