<svg width="36" height="39" viewBox="0 0 36 39" fill="none" xmlns="http://www.w3.org/2000/svg">
<path d="M15.85 21.175C15.85 23.2575 15.0059 24.9457 13.9647 24.9457C12.9235 24.9457 12.0794 23.2575 12.0794 21.175C12.0794 19.0926 12.9235 17.4044 13.9647 17.4044C14.4669 17.4044 14.9232 17.797 15.2611 18.4372C15.2293 18.4342 15.197 18.4327 15.1644 18.4327C14.5965 18.4327 14.1361 18.8931 14.1361 19.4611C14.1361 20.029 14.5965 20.4895 15.1644 20.4895C15.4024 20.4895 15.6215 20.4086 15.7957 20.2729C15.8312 20.562 15.85 20.8641 15.85 21.175Z" fill="url(#paint0_linear)"/>
<path d="M26.6479 24.9457C27.6891 24.9457 28.5332 23.2575 28.5332 21.175C28.5332 20.8641 28.5144 20.562 28.4789 20.2729C28.3047 20.4086 28.0856 20.4894 27.8476 20.4894C27.2797 20.4894 26.8193 20.029 26.8193 19.4611C26.8193 18.8931 27.2797 18.4327 27.8476 18.4327C27.8802 18.4327 27.9124 18.4342 27.9442 18.4372C27.6063 17.797 27.15 17.4044 26.6479 17.4044C25.6066 17.4044 24.7625 19.0925 24.7625 21.175C24.7625 23.2575 25.6066 24.9457 26.6479 24.9457Z" fill="url(#paint1_linear)"/>
<path fill-rule="evenodd" clip-rule="evenodd" d="M5.02151 9.36048L0 7.3324L5.073 21.3667L5.14831 21.2942C4.97273 22.1994 4.88086 23.1336 4.88086 24.0887C4.88086 32.324 11.7103 39 20.1349 39C28.5595 39 35.3889 32.324 35.3889 24.0887C35.3889 21.1066 34.4934 18.329 32.9509 15.9988L34.5451 1.77063L23.6065 9.56535C22.8434 9.39175 22.0584 9.27413 21.2562 9.21716L21.6339 10.9626C21.6339 10.9626 20.6483 13.8167 15.423 14.9476C10.1977 16.0786 8.3003 13.8485 8.3003 13.8485L7.54997 10.3817L6.31032 9.881L6.88977 13.5958C6.88977 13.5958 6.38133 13.9888 5.93086 14.0863C5.4804 14.1838 4.79126 14.05 4.79126 14.05C4.79126 14.05 4.54518 13.3488 4.53778 12.8788C4.53241 12.5381 4.84767 10.4716 5.02151 9.36048ZM13.9647 25.6313C16.5205 25.6313 18.5923 23.5594 18.5923 21.0037C18.5923 18.4479 16.5205 16.376 13.9647 16.376C11.4089 16.376 9.33708 18.4479 9.33708 21.0037C9.33708 23.5594 11.4089 25.6313 13.9647 25.6313ZM31.2755 21.0036C31.2755 23.5594 29.2036 25.6313 26.6478 25.6313C24.0921 25.6313 22.0202 23.5594 22.0202 21.0036C22.0202 18.4479 24.0921 16.376 26.6478 16.376C29.2036 16.376 31.2755 18.4479 31.2755 21.0036ZM18.6376 25.6765C18.8384 25.4757 19.1639 25.4757 19.3647 25.6765L20.327 26.6388L21.3138 25.6521C21.5146 25.4513 21.8401 25.4513 22.0409 25.6521C22.2417 25.8529 22.2417 26.1784 22.0409 26.3792L20.7421 27.6781C20.7276 27.6973 20.7117 27.7157 20.6942 27.7332C20.4934 27.934 20.1679 27.934 19.9671 27.7332L18.6376 26.4037C18.4368 26.2029 18.4368 25.8773 18.6376 25.6765Z" fill="url(#paint2_linear)"/>
<path d="M7.54281 9.14935L8.43585 13.2755C8.43585 13.2755 10.3332 15.5056 15.5586 14.3747C20.7839 13.2438 21.7695 10.3897 21.7695 10.3897L20.8934 6.34186L14.8836 11.1256L7.54281 9.14935Z" fill="url(#paint3_linear)"/>
<path d="M12.5167 0.320374L2.89317 7.71113L5.02022 8.20608L5.20645 7.71922C5.21757 7.69015 5.23525 7.66552 5.25716 7.64637C5.27445 7.62733 5.29692 7.61255 5.32329 7.60448L5.94346 7.4145C6.0216 7.39056 6.10435 7.4345 6.12829 7.51264C6.15223 7.59078 6.10829 7.67353 6.03015 7.69747L5.66861 7.80822L5.47587 8.3121C5.47587 8.3121 4.87317 12.0661 4.88058 12.5361C4.88798 13.006 5.13406 13.7073 5.13406 13.7073C5.13406 13.7073 5.8232 13.8411 6.27366 13.7436C6.72413 13.6461 7.23257 13.2531 7.23257 13.2531L6.51823 8.67348L6.42662 8.25022C6.45249 8.1826 6.50659 8.13409 6.57034 8.11298L7.72319 7.50097C7.79538 7.46265 7.88496 7.4901 7.92328 7.56228C7.9616 7.63447 7.93415 7.72405 7.86196 7.76237L6.87054 8.28868C6.8786 8.32986 6.87559 8.37372 6.85949 8.4158L6.78283 8.61622L14.7115 10.4612L24.3351 3.07039L12.5167 0.320374Z" fill="url(#paint4_linear)"/>
<path d="M8.43585 13.2755L7.54281 9.14935L14.8836 11.1256L20.8934 6.34186L21.7695 10.3897C21.7695 10.3897 20.7839 13.2438 15.5586 14.3747C10.3332 15.5056 8.43585 13.2755 8.43585 13.2755Z" fill="url(#paint5_linear)"/>
<defs>
<linearGradient id="paint0_linear" x1="0" y1="39" x2="42.1252" y2="29.1607" gradientUnits="userSpaceOnUse">
<stop stop-color="#6FB2C0"/>
<stop offset="1" stop-color="#1B6A7A"/>
</linearGradient>
<linearGradient id="paint1_linear" x1="0" y1="39" x2="42.1252" y2="29.1607" gradientUnits="userSpaceOnUse">
<stop stop-color="#6FB2C0"/>
<stop offset="1" stop-color="#1B6A7A"/>
</linearGradient>
<linearGradient id="paint2_linear" x1="0" y1="39" x2="42.1252" y2="29.1607" gradientUnits="userSpaceOnUse">
<stop stop-color="#6FB2C0"/>
<stop offset="1" stop-color="#1B6A7A"/>
</linearGradient>
<linearGradient id="paint3_linear" x1="0" y1="39" x2="42.1252" y2="29.1607" gradientUnits="userSpaceOnUse">
<stop stop-color="#6FB2C0"/>
<stop offset="1" stop-color="#1B6A7A"/>
</linearGradient>
<linearGradient id="paint4_linear" x1="0" y1="39" x2="42.1252" y2="29.1607" gradientUnits="userSpaceOnUse">
<stop stop-color="#6FB2C0"/>
<stop offset="1" stop-color="#1B6A7A"/>
</linearGradient>
<linearGradient id="paint5_linear" x1="0" y1="39" x2="42.1252" y2="29.1607" gradientUnits="userSpaceOnUse">
<stop stop-color="#6FB2C0"/>
<stop offset="1" stop-color="#1B6A7A"/>
</linearGradient>
</defs>
</svg>
