<svg width="36" height="39" viewBox="0 0 36 39" fill="none" xmlns="http://www.w3.org/2000/svg">
<path d="M15.85 21.175C15.85 23.2575 15.0059 24.9456 13.9647 24.9456C12.9235 24.9456 12.0794 23.2575 12.0794 21.175C12.0794 19.0925 12.9235 17.4043 13.9647 17.4043C14.4669 17.4043 14.9232 17.797 15.2611 18.4372C15.2293 18.4342 15.197 18.4327 15.1644 18.4327C14.5965 18.4327 14.1361 18.8931 14.1361 19.461C14.1361 20.029 14.5965 20.4894 15.1644 20.4894C15.4024 20.4894 15.6215 20.4086 15.7957 20.2729C15.8312 20.5619 15.85 20.864 15.85 21.175Z" fill="url(#paint0_linear)"/>
<path d="M26.6479 24.9456C27.6891 24.9456 28.5332 23.2574 28.5332 21.175C28.5332 20.864 28.5144 20.5619 28.4789 20.2729C28.3047 20.4086 28.0856 20.4894 27.8476 20.4894C27.2797 20.4894 26.8193 20.029 26.8193 19.461C26.8193 18.8931 27.2797 18.4327 27.8476 18.4327C27.8802 18.4327 27.9124 18.4342 27.9442 18.4371C27.6063 17.797 27.15 17.4043 26.6479 17.4043C25.6066 17.4043 24.7625 19.0925 24.7625 21.175C24.7625 23.2574 25.6066 24.9456 26.6479 24.9456Z" fill="url(#paint1_linear)"/>
<path fill-rule="evenodd" clip-rule="evenodd" d="M5.02151 9.36042L0 7.33234L5.073 21.3667L5.14831 21.2941C4.97273 22.1993 4.88086 23.1335 4.88086 24.0887C4.88086 32.3239 11.7103 38.9999 20.1349 38.9999C28.5595 38.9999 35.3889 32.3239 35.3889 24.0887C35.3889 21.1066 34.4934 18.3289 32.9509 15.9987L34.5451 1.77057L23.6065 9.56529C22.8434 9.39169 22.0584 9.27407 21.2562 9.2171L21.6339 10.9626C21.6339 10.9626 20.6483 13.8166 15.423 14.9476C10.1977 16.0785 8.3003 13.8484 8.3003 13.8484L7.54997 10.3816L6.31032 9.88094L6.88977 13.5958C6.88977 13.5958 6.38133 13.9888 5.93086 14.0863C5.4804 14.1837 4.79126 14.05 4.79126 14.05C4.79126 14.05 4.54518 13.3487 4.53778 12.8788C4.53241 12.5381 4.84767 10.4715 5.02151 9.36042ZM13.9647 25.6312C16.5205 25.6312 18.5923 23.5594 18.5923 21.0036C18.5923 18.4478 16.5205 16.376 13.9647 16.376C11.4089 16.376 9.33708 18.4478 9.33708 21.0036C9.33708 23.5594 11.4089 25.6312 13.9647 25.6312ZM31.2755 21.0036C31.2755 23.5593 29.2036 25.6312 26.6478 25.6312C24.0921 25.6312 22.0202 23.5593 22.0202 21.0036C22.0202 18.4478 24.0921 16.3759 26.6478 16.3759C29.2036 16.3759 31.2755 18.4478 31.2755 21.0036ZM18.6376 25.6764C18.8384 25.4756 19.1639 25.4756 19.3647 25.6764L20.327 26.6388L21.3138 25.652C21.5146 25.4512 21.8401 25.4512 22.0409 25.652C22.2417 25.8528 22.2417 26.1784 22.0409 26.3792L20.7421 27.678C20.7276 27.6972 20.7117 27.7156 20.6942 27.7331C20.4934 27.9339 20.1679 27.9339 19.9671 27.7331L18.6376 26.4036C18.4368 26.2028 18.4368 25.8772 18.6376 25.6764Z" fill="url(#paint2_linear)"/>
<path d="M7.54281 9.14929L8.43585 13.2755C8.43585 13.2755 10.3332 15.5056 15.5586 14.3747C20.7839 13.2437 21.7695 10.3897 21.7695 10.3897L20.8934 6.3418L14.8836 11.1255L7.54281 9.14929Z" fill="url(#paint3_linear)"/>
<path d="M12.5167 0.320312L2.89317 7.71107L5.02022 8.20601L5.20645 7.71916C5.21757 7.69009 5.23525 7.66546 5.25716 7.64631C5.27445 7.62727 5.29692 7.61249 5.32329 7.60442L5.94346 7.41443C6.0216 7.3905 6.10435 7.43444 6.12829 7.51258C6.15223 7.59072 6.10829 7.67347 6.03015 7.69741L5.66861 7.80816L5.47587 8.31204C5.47587 8.31204 4.87317 12.0661 4.88058 12.536C4.88798 13.006 5.13406 13.7072 5.13406 13.7072C5.13406 13.7072 5.8232 13.841 6.27366 13.7435C6.72413 13.646 7.23257 13.253 7.23257 13.253L6.51823 8.67342L6.42662 8.25016C6.45249 8.18254 6.50659 8.13403 6.57034 8.11292L7.72319 7.50091C7.79538 7.46259 7.88496 7.49004 7.92328 7.56222C7.9616 7.63441 7.93415 7.72399 7.86196 7.76231L6.87054 8.28862C6.8786 8.3298 6.87559 8.37366 6.85949 8.41573L6.78283 8.61616L14.7115 10.4611L24.3351 3.07033L12.5167 0.320312Z" fill="url(#paint4_linear)"/>
<path d="M8.43585 13.2755L7.54281 9.14929L14.8836 11.1255L20.8934 6.3418L21.7695 10.3897C21.7695 10.3897 20.7839 13.2437 15.5586 14.3747C10.3332 15.5056 8.43585 13.2755 8.43585 13.2755Z" fill="url(#paint5_linear)"/>
<defs>
<linearGradient id="paint0_linear" x1="0" y1="38.9999" x2="42.1252" y2="29.1607" gradientUnits="userSpaceOnUse">
<stop stop-color="#2962FF" stop-opacity="0.75"/>
<stop offset="1" stop-color="#6200EA"/>
</linearGradient>
<linearGradient id="paint1_linear" x1="0" y1="38.9999" x2="42.1252" y2="29.1607" gradientUnits="userSpaceOnUse">
<stop stop-color="#2962FF" stop-opacity="0.75"/>
<stop offset="1" stop-color="#6200EA"/>
</linearGradient>
<linearGradient id="paint2_linear" x1="0" y1="38.9999" x2="42.1252" y2="29.1607" gradientUnits="userSpaceOnUse">
<stop stop-color="#2962FF" stop-opacity="0.75"/>
<stop offset="1" stop-color="#6200EA"/>
</linearGradient>
<linearGradient id="paint3_linear" x1="0" y1="38.9999" x2="42.1252" y2="29.1607" gradientUnits="userSpaceOnUse">
<stop stop-color="#2962FF" stop-opacity="0.75"/>
<stop offset="1" stop-color="#6200EA"/>
</linearGradient>
<linearGradient id="paint4_linear" x1="0" y1="38.9999" x2="42.1252" y2="29.1607" gradientUnits="userSpaceOnUse">
<stop stop-color="#2962FF" stop-opacity="0.75"/>
<stop offset="1" stop-color="#6200EA"/>
</linearGradient>
<linearGradient id="paint5_linear" x1="0" y1="38.9999" x2="42.1252" y2="29.1607" gradientUnits="userSpaceOnUse">
<stop stop-color="#2962FF" stop-opacity="0.75"/>
<stop offset="1" stop-color="#6200EA"/>
</linearGradient>
</defs>
</svg>
