<svg width="317" height="241" viewBox="0 0 317 241" fill="none" xmlns="http://www.w3.org/2000/svg">
<path d="M255.334 0.144928H0.109131V163.602H255.334V0.144928Z" fill="#E6E6E6"/>
<path d="M248.036 20.6471H7.40723V153.933H248.036V20.6471Z" fill="white"/>
<path d="M255.225 0H0V10.8429H255.225V0Z" fill="#2962FF"/>
<path d="M8.0575 7.55381C9.16739 7.55381 10.0671 6.65406 10.0671 5.54416C10.0671 4.43426 9.16739 3.53452 8.0575 3.53452C6.9476 3.53452 6.04785 4.43426 6.04785 5.54416C6.04785 6.65406 6.9476 7.55381 8.0575 7.55381Z" fill="white"/>
<path d="M15.6859 7.55381C16.7958 7.55381 17.6956 6.65406 17.6956 5.54416C17.6956 4.43426 16.7958 3.53452 15.6859 3.53452C14.576 3.53452 13.6763 4.43426 13.6763 5.54416C13.6763 6.65406 14.576 7.55381 15.6859 7.55381Z" fill="white"/>
<path d="M23.3138 7.55381C24.4237 7.55381 25.3235 6.65406 25.3235 5.54416C25.3235 4.43426 24.4237 3.53452 23.3138 3.53452C22.2039 3.53452 21.3042 4.43426 21.3042 5.54416C21.3042 6.65406 22.2039 7.55381 23.3138 7.55381Z" fill="white"/>
<path d="M91.1015 34.4765H29.2712V140.103H91.1015V34.4765Z" fill="#E6E6E6"/>
<path d="M153.3 34.4765H101.775V63.5515H153.3V34.4765Z" fill="#2962FF"/>
<path d="M153.3 71.6483H101.775V102.931H153.3V71.6483Z" fill="#E6E6E6"/>
<path d="M153.3 111.028H101.775V140.103H153.3V111.028Z" fill="#E6E6E6"/>
<path d="M226.171 34.4765H164.341V80.5081H226.171V34.4765Z" fill="#E6E6E6"/>
<path d="M226.171 94.0717H164.341V140.103H226.171V94.0717Z" fill="#2962FF"/>
<path d="M292.002 81.9278C287.923 74.9767 279.854 74.6528 279.854 74.6528C279.854 74.6528 271.992 73.6386 266.948 84.2251C262.246 94.0927 255.758 103.62 265.903 105.93L267.736 100.177L268.87 106.358C270.315 106.463 271.764 106.488 273.211 106.433C284.076 106.079 294.423 106.537 294.09 102.604C293.647 97.3764 295.926 88.6161 292.002 81.9278Z" fill="#2F2E41"/>
<path d="M253.325 119.041L249.757 128.158L231.92 144.807C231.92 144.807 221.217 152.735 225.974 155.113C230.73 157.492 235.091 146.392 235.091 146.392L254.118 134.897L258.082 121.816L253.325 119.041Z" fill="#FFB8B8"/>
<path d="M259.271 220.122L262.838 229.24H267.991L263.631 218.537L259.271 220.122Z" fill="#FFB8B8"/>
<path d="M274.73 224.086L278.298 233.204H283.451L279.09 222.501L274.73 224.086Z" fill="#FFB8B8"/>
<path d="M274.334 225.672L281.073 224.086L272.352 188.807L275.247 161.661L275.325 161.654C275.325 161.654 280.28 142.428 276.316 137.275C272.352 132.122 252.532 134.104 252.532 134.104C252.532 134.104 245.001 141.636 245.397 158.681C245.793 175.726 245.397 190.393 248.172 197.131C250.947 203.87 258.874 221.708 258.874 221.708L265.217 220.915L258.478 191.582L257.401 166.083C258.258 176.301 259.984 195.677 260.856 197.131C262.046 199.113 274.334 225.672 274.334 225.672Z" fill="#2F2E41"/>
<path d="M294.55 127.365L297.325 137.275L309.613 159.474C309.613 159.474 320.316 168.987 315.956 170.176C311.595 171.365 304.857 161.456 304.857 161.456L290.983 142.032L287.415 127.762L294.55 127.365Z" fill="#FFB8B8"/>
<path d="M280.28 99.2212C285.753 99.2212 290.19 94.7843 290.19 89.3112C290.19 83.8381 285.753 79.4013 280.28 79.4013C274.807 79.4013 270.37 83.8381 270.37 89.3112C270.37 94.7843 274.807 99.2212 280.28 99.2212Z" fill="#FFB8B8"/>
<path d="M275.127 94.4644L272.748 101.996L268.784 110.717L283.451 104.771C283.451 104.771 282.658 98.4284 283.451 96.8428L275.127 94.4644Z" fill="#FFB8B8"/>
<path d="M292.172 110.32L283.055 102.789L272.748 107.149L273.152 100.717L262.156 104.229L260.46 104.771L258.082 117.059C258.082 117.059 256.496 118.248 254.911 124.987C253.995 128.947 252.666 132.8 250.947 136.483C250.947 136.483 267.992 129.744 276.316 138.861C276.316 138.861 277.505 138.068 277.109 136.879C276.712 135.69 280.676 129.744 280.676 129.744C280.676 129.744 280.676 130.933 282.262 128.555C283.847 126.176 285.037 125.78 285.037 125.78L292.172 110.32Z" fill="#2962FF"/>
<path d="M262.838 105.96L261.107 104.564C261.107 104.564 259.667 103.978 258.478 105.96C257.289 107.942 251.343 120.23 251.343 120.23L258.478 123.798L262.838 105.96Z" fill="#2962FF"/>
<path d="M286.622 109.924L292.172 110.32C292.172 110.32 295.343 111.906 295.343 114.284C295.343 116.663 296.136 129.347 296.136 129.347L287.415 132.122L283.847 121.023L286.622 109.924Z" fill="#2962FF"/>
<path d="M261.693 227.852L254.954 230.627C254.954 230.627 247.026 231.023 248.215 234.987C249.404 238.951 261.296 236.176 261.296 236.176C261.296 236.176 271.999 236.573 271.999 233.798C271.999 231.023 270.414 227.852 268.828 227.852H261.693Z" fill="#2F2E41"/>
<path d="M276.756 231.42L270.017 234.194C270.017 234.194 262.089 234.591 263.279 238.555C264.468 242.519 276.36 239.744 276.36 239.744C276.36 239.744 287.062 240.14 287.062 237.366C287.062 234.591 285.477 231.42 283.891 231.42H276.756Z" fill="#2F2E41"/>
<path d="M290.198 81.2578L282.226 77.0457L271.218 78.7688L268.94 88.9154L274.61 88.6958L276.194 84.9677V88.6344L278.81 88.5329L280.329 82.598L281.278 88.9154L290.578 88.7239L290.198 81.2578Z" fill="#2F2E41"/>
<path d="M236.879 33.1183C228.949 26.4272 219.246 22.1852 208.95 20.9084C198.653 19.6315 188.208 21.3749 178.884 25.9265C169.56 30.478 161.76 37.6414 156.434 46.545C151.107 55.4486 148.483 65.7084 148.881 76.0761C149.279 86.4438 152.682 96.4723 158.675 104.941C164.669 113.41 172.995 119.955 182.64 123.778C192.286 127.601 202.834 128.539 213.002 126.476C223.171 124.414 232.52 119.44 239.913 112.161L305.564 167.557C306.059 167.974 306.631 168.291 307.249 168.487C307.866 168.684 308.516 168.757 309.161 168.702C309.807 168.647 310.435 168.466 311.01 168.169C311.586 167.871 312.097 167.463 312.515 166.968C312.932 166.473 313.248 165.901 313.445 165.284C313.641 164.666 313.714 164.016 313.66 163.371C313.605 162.726 313.423 162.097 313.126 161.522C312.828 160.947 312.42 160.435 311.925 160.018L246.275 104.622C253.901 93.6765 257.165 80.2772 255.427 67.0503C253.689 53.8233 247.074 41.7222 236.879 33.1183ZM232.647 99.2879C227.532 105.349 220.735 109.758 213.115 111.956C205.495 114.154 197.395 114.044 189.837 111.638C182.28 109.233 175.606 104.64 170.659 98.4413C165.712 92.2426 162.714 84.7162 162.045 76.8137C161.375 68.9113 163.064 60.9878 166.898 54.0452C170.732 47.1026 176.538 41.4527 183.583 37.8101C190.627 34.1674 198.594 32.6955 206.475 33.5806C214.357 34.4657 221.798 37.6679 227.86 42.7824C235.988 49.6407 241.058 59.4469 241.956 70.0437C242.854 80.6406 239.505 91.16 232.647 99.2879Z" fill="#3F3D56"/>
<path opacity="0.3" d="M176.141 104.075C168.449 97.5836 163.479 88.4366 162.218 78.4503C160.958 68.464 163.499 58.3689 169.337 50.1695C168.57 50.9416 167.829 51.7502 167.113 52.5954C163.717 56.6199 161.147 61.2739 159.549 66.2918C157.951 71.3097 157.358 76.5931 157.802 81.8404C158.247 87.0877 159.72 92.196 162.139 96.8738C164.557 101.552 167.874 105.707 171.899 109.103C175.923 112.499 180.578 115.069 185.596 116.666C190.613 118.264 195.897 118.857 201.144 118.412C206.392 117.967 211.5 116.494 216.177 114.075C220.855 111.655 225.01 108.339 228.406 104.314C229.12 103.468 229.792 102.601 230.423 101.714C223.323 108.848 213.799 113.051 203.743 113.489C193.687 113.926 183.834 110.566 176.141 104.075Z" fill="black"/>
</svg>
